<?xml version="1.0" encoding="UTF-8"?>
<!-- Generator: Adobe Illustrator 24.2.3, SVG Export Plug-In . SVG Version: 6.00 Build 0)  -->
<svg xmlns="http://www.w3.org/2000/svg" xmlns:xlink="http://www.w3.org/1999/xlink" version="1.1" id="Capa_1" x="0px" y="0px" viewBox="0 0 512 512" style="enable-background:new 0 0 512 512;" xml:space="preserve" width="512" height="512">
<g id="_x3C_Group_x3E__10_">
	<path d="M470.502,0H41.498C18.616,0,0,18.616,0,41.498v23.233c0,36.674,12.617,72.642,35.526,101.277   c19.049,23.812,46.162,42.466,76.347,52.527l17.666,5.889c18.72,31.217,48.779,55.091,84.963,65.717v26.854   c0,10.751-8.747,19.498-19.498,19.498c-22.882,0-41.498,18.616-41.498,41.498v19.497h-19.498c-6.075,0-11,4.925-11,11V490h-19.497   c-6.075,0-11,4.925-11,11s4.925,11,11,11h304.979c6.075,0,11-4.925,11-11s-4.925-11-11-11h-19.497v-81.511c0-6.075-4.925-11-11-11   h-19.498v-19.497c0-22.882-18.616-41.498-41.498-41.498c-10.751,0-19.498-8.747-19.498-19.498v-26.854   c36.156-10.618,66.197-34.464,84.92-65.645l18.583-5.915c0.048-0.015,0.096-0.03,0.143-0.046   c29.715-9.905,55.764-28.068,75.33-52.526C499.383,137.373,512,101.405,512,64.731V41.498C512,18.616,493.384,0,470.502,0z    M52.706,152.266C32.905,127.516,22,96.429,22,64.731V41.498C22,30.747,30.747,22,41.498,22h52.167l15.939,143.451   c1.208,10.87,3.618,21.401,7.088,31.459C91.348,188.022,68.687,172.243,52.706,152.266z M366.992,490H145.008v-70.511h221.984V490z    M284.031,270.935c-4.994,1.148-8.533,5.595-8.533,10.72v35.342c0,22.882,18.616,41.498,41.498,41.498   c10.751,0,19.498,8.747,19.498,19.498v19.497H175.506v-19.497c0-10.751,8.747-19.498,19.498-19.498   c22.882,0,41.498-18.616,41.498-41.498v-35.342c0-5.125-3.539-9.571-8.533-10.72c-51.874-11.936-90.654-55.302-96.499-107.913   L115.801,22h280.398L380.53,163.021C374.686,215.633,335.905,258.999,284.031,270.935z M490,64.731   c0,31.697-10.905,62.784-30.706,87.534c-16.693,20.866-38.85,36.419-64.12,45.051c3.545-10.179,5.998-20.85,7.221-31.866   L418.335,22h52.167C481.253,22,490,30.747,490,41.498V64.731z"/>
	<g>
		<path style="fill:#33CCCC;" d="M293.696,196.273c-1.716,0-3.438-0.4-5.022-1.214L256,178.288l-32.674,16.771    c-3.716,1.907-8.189,1.546-11.551-0.932c-3.36-2.478-5.029-6.645-4.307-10.758l6.179-35.178l-26.227-24.959    c-3.056-2.908-4.179-7.307-2.894-11.323c1.286-4.017,4.756-6.944,8.932-7.536l36.465-5.175l16.259-32.166    c1.872-3.702,5.668-6.037,9.817-6.037s7.945,2.335,9.817,6.037l16.259,32.166l36.465,5.175c4.176,0.592,7.646,3.52,8.932,7.536    c1.285,4.017,0.162,8.415-2.894,11.323l-26.227,24.959l6.179,35.178c0.723,4.113-0.946,8.28-4.307,10.758    C298.297,195.549,296.003,196.273,293.696,196.273z M256,154.924c1.724,0,3.446,0.404,5.023,1.214l18.012,9.245l-3.371-19.19    c-0.638-3.627,0.583-7.333,3.251-9.872l14.036-13.357l-19.647-2.788c-3.561-0.505-6.649-2.719-8.272-5.929L256,96.38    l-9.031,17.866c-1.623,3.21-4.712,5.424-8.272,5.929l-19.647,2.788l14.036,13.357c2.668,2.539,3.889,6.245,3.251,9.872    l-3.371,19.19l18.012-9.245C252.554,155.328,254.277,154.924,256,154.924z"/>
	</g>
</g>















</svg>
