<svg id="Capa_1" enable-background="new 0 0 510.5 510.5" height="512" viewBox="0 0 510.5 510.5" width="512" xmlns="http://www.w3.org/2000/svg"><g><path d="m443.764 83.839-18.042-6.306-2.291-13.751c-44.9-39.634-103.795-63.782-168.291-63.782h-114.563v27.16c-.419.21-.825.42-1.239.63v80.879h324.308c-6.116-8.686-12.758-16.979-19.882-24.83z" fill="#6cf5c2"/><g><path d="m499.594 182.694c-3.585-12.065-8.036-23.76-13.28-35.012h-398.421c12.577 102.369 88.001 186.135 185.482 214.418h135.761c33.994-10.407 66.515-27.68 91.435-46.965z" fill="#dff6fd"/><g><g fill="#c4e2ff"><path d="m486.405 322.795c-29.887 19.833-64.195 33.531-101.131 39.305h101.573c5.169-11.228 9.554-22.907 13.077-34.973z"/><path d="m93.351 147.682h-69.331c-5.193 11.11-9.611 22.655-13.182 34.565l-.352 145.347c3.499 11.886 7.841 23.411 12.955 34.507h282.498c-109.786-17.148-196.36-104.33-212.588-214.419z"/></g></g></g><path d="m509.245 234.171c-1.469-17.735-4.755-34.952-9.668-51.472-2.503-1.315-5.347-2.067-8.37-2.067h-352.594v138.903l369.307-30.173c.489-3.729.951-7.886 1.325-12.402l.321-3.963c1.048-12.926.94-25.919-.321-38.826z" fill="#fd3581"/><path d="m139.273 361.764v109.392h244.863l.466-.431 19.989-8.616c6.897-4.994 13.537-10.326 19.895-15.973l4.208-11.576 15.938-8.421c17.163-19.036 31.516-40.703 42.373-64.376h-347.732z" fill="#fef48b"/><path d="m486.53 148.236c-6.537-14.077-14.308-27.464-23.196-40.006h-304.718c-9.962 0-18.038-8.076-18.038-18.038v-62.775c-28.37 14.102-44.099 28.481-44.184 28.529-30.836 24.565-55.843 56.135-72.638 92.291h462.774z" fill="#00f2a6"/><g><path d="m139.194 86.451c0-2.155.516-3.975 1.383-5.469v-80.982h-122.317c-9.963 0-18.039 7.576-18.039 17.538v112.659c0 9.962 8.076 18.038 18.038 18.038h120.935z" fill="#00f2a6"/></g><path d="m507.919 289.362h-349.303c-9.962 0-18.038-8.076-18.038-18.038v-90.692h-122.318c-2.651 0-5.16.586-7.427 1.613-6.443 21.506-10.108 44.208-10.612 67.688v11.955c.56 22.769 4.119 44.791 10.272 65.703 2.355 1.127 4.982 1.777 7.767 1.777h472.947c3.159 0 6.126-.817 8.708-2.244 1.667-5.713 3.152-11.507 4.425-17.386.101-.621 1.985-8.227 3.579-20.376z" fill="#e41e7f"/><g><circle cx="69.851" cy="255" fill="#004281" r="54.56"/></g><g><path d="m70.096 216.29c11.392 0 22.882 7.169 22.882 20.328 0 21.311-30.346 28.283-30.346 37.22v.884h25.73c2.455 0 4.616 3.044 4.616 6.58s-2.161 6.776-4.616 6.776h-34.961c-2.75 0-6.678-1.866-6.678-4.714v-9.526c0-15.418 30.935-24.257 30.935-36.729 0-3.143-1.964-6.973-7.463-6.973-3.928 0-7.366 1.964-7.366 7.366 0 2.848-3.044 5.598-8.053 5.598-3.928 0-6.875-1.768-6.875-7.955.001-11.981 11-18.855 22.195-18.855z" fill="#fff"/></g><g><path d="m190.732 209.032h181.747v20h-181.747z" fill="#a82975"/></g><g><path d="m397.814 245h73.321v20h-73.321z" fill="#a82975"/></g><g><path d="m263.062 245h91.476v20h-91.476z" fill="#a82975"/></g><g><path d="m190.732 245h43.596v20h-43.596z" fill="#a82975"/></g><g><path d="m304.124 280.968h167.01v20h-167.01z" fill="#a82975"/></g><g><path d="m190.732 280.968h85.211v20h-85.211z" fill="#a82975"/></g><path d="m159.023 470.494c-9.962 0-18.038-8.076-18.038-18.038v-90.692h-117.702c4.686 10.208 10.027 20.054 15.968 29.483l75.156 76.927c40.33 26.746 88.709 42.325 140.728 42.326h.01c42.258-.001 82.291-10.348 117.584-28.725v-11.281z" fill="#ffe177"/><path d="m70.258 381.572c-11.52 0-22.198 3.579-31.004 9.673 3.176 5.041 6.524 9.963 10.036 14.757l7.35 4.888 3.665 9.105c2.002 2.369 4.046 4.7 6.132 6.994l26.981 25.655c6.72 5.519 13.727 10.701 20.995 15.52 6.538-8.997 10.405-20.061 10.405-32.033 0-30.131-24.427-54.559-54.56-54.559z" fill="#004281"/><path d="m93.827 447.604v-1.866c0-7.955-4.223-12.276-10.017-14.436 4.91-2.259 7.562-8.937 7.562-16.106 0-13.258-9.428-17.775-21.9-17.775-10.759 0-16.89 4.025-19.929 8.926 3.435 4.674 7.026 9.224 10.764 13.647 1.429-.985 1.898-2.523 1.898-4.405 0-3.83 2.455-5.009 7.267-5.009 4.026 0 7.268 1.375 7.268 7.071 0 7.955-3.928 8.446-7.66 8.446-1.13 0-1.995.343-2.654.903 8.357 9.19 17.38 17.763 26.986 25.652.268-1.562.415-3.238.415-5.048z" fill="#fff"/><g><path d="m191.139 390.164h131.426v20h-131.426z" fill="#fea95c"/></g><path d="m422.584 426.132v20h1.899c7.076-6.285 13.797-12.965 20.14-20z" fill="#fea95c"/><g><path d="m298.083 426.132h103.694v20h-103.694z" fill="#fea95c"/></g><g><path d="m191.139 426.132h80.071v20h-80.071z" fill="#fea95c"/></g><path d="m404.585 462.1h-32.107v19.812c11.208-5.818 21.936-12.447 32.107-19.812z" fill="#fea95c"/><g><path d="m191.139 462.1h135.335v20h-135.335z" fill="#fea95c"/></g><g><circle cx="69.851" cy="73.868" fill="#004281" r="54.56"/></g><g><path d="m64.646 52.245-2.848 1.768c-.884.589-1.768.786-2.455.786-2.848 0-4.812-3.044-4.812-6.089 0-2.063.884-4.026 2.848-5.205l12.963-7.856c.786-.491 1.768-.688 2.848-.688 3.143 0 6.776 1.866 6.776 4.812v62.459c0 3.143-3.83 4.714-7.66 4.714s-7.66-1.571-7.66-4.714z" fill="#fff"/></g><g><path d="m190.732 27.9h113.393v20h-113.393z" fill="#14d1b2"/></g><path d="m423.355 63.868h-17.615v20h37.992c-6.411-7.041-13.221-13.713-20.377-20z" fill="#14d1b2"/><g><path d="m190.732 63.868h160.957v20h-160.957z" fill="#14d1b2"/></g><g><path d="m288.823 99.836h167.311v20h-167.311z" fill="#14d1b2"/></g><g><path d="m190.732 99.836h56.826v20h-56.826z" fill="#14d1b2"/></g></g></svg>