<svg id="chart-histogram" xmlns="http://www.w3.org/2000/svg" width="38.99" height="38.99" viewBox="0 0 38.99 38.99">
  <path id="Path_11147" data-name="Path 11147" d="M37.365,35.741H8.123a4.874,4.874,0,0,1-4.874-4.874V1.625A1.625,1.625,0,1,0,0,1.625V30.867A8.133,8.133,0,0,0,8.123,38.99H37.365a1.625,1.625,0,1,0,0-3.249Z" transform="translate(0 0)"/>
  <path id="Path_11148" data-name="Path 11148" d="M6.625,25.621A1.625,1.625,0,0,0,8.249,24V12.625a1.625,1.625,0,0,0-3.249,0V24A1.625,1.625,0,0,0,6.625,25.621Z" transform="translate(3.123 6.87)"/>
  <path id="Path_11149" data-name="Path 11149" d="M10,10.625V25.246a1.625,1.625,0,1,0,3.249,0V10.625a1.625,1.625,0,1,0-3.249,0Z" transform="translate(6.246 5.621)"/>
  <path id="Path_11150" data-name="Path 11150" d="M15,13.625v9.747a1.625,1.625,0,1,0,3.249,0V13.625a1.625,1.625,0,0,0-3.249,0Z" transform="translate(9.369 7.495)"/>
  <path id="Path_11151" data-name="Path 11151" d="M20,9.625V25.87a1.625,1.625,0,0,0,3.249,0V9.625a1.625,1.625,0,0,0-3.249,0Z" transform="translate(12.491 4.997)"/>
  <path id="Path_11152" data-name="Path 11152" d="M6.624,14.621a1.624,1.624,0,0,0,1.148-.476L13.6,8.319a1.665,1.665,0,0,1,2.3,0l3.529,3.529a4.874,4.874,0,0,0,6.891,0l9.075-9.075a1.624,1.624,0,1,0-2.3-2.3L24.019,9.549a1.625,1.625,0,0,1-2.3,0L18.193,6.022a4.874,4.874,0,0,0-6.891,0L5.476,11.848a1.625,1.625,0,0,0,1.149,2.773Z" transform="translate(3.123 0)"/>
</svg>
