<?xml version="1.0" encoding="UTF-8"?>
<!-- Generator: Adobe Illustrator 24.2.3, SVG Export Plug-In . SVG Version: 6.00 Build 0)  -->
<svg xmlns="http://www.w3.org/2000/svg" xmlns:xlink="http://www.w3.org/1999/xlink" version="1.1" id="Capa_1" x="0px" y="0px" viewBox="0 0 512 512" style="enable-background:new 0 0 512 512;" xml:space="preserve" width="512" height="512">
<g>
	<g>
		<g>
			<path d="M440.004,440.838H285.481c-6.075,0-11-4.925-11-11s4.925-11,11-11h154.522c6.075,0,11,4.925,11,11     S446.079,440.838,440.004,440.838z"/>
		</g>
		<g>
			<path style="fill:#33CCCC;" d="M440.004,379.842H285.481c-6.075,0-11-4.925-11-11s4.925-11,11-11h154.522c6.075,0,11,4.925,11,11     S446.079,379.842,440.004,379.842z"/>
		</g>
		<g>
			<path d="M440.004,318.847H285.481c-6.075,0-11-4.925-11-11s4.925-11,11-11h154.522c6.075,0,11,4.925,11,11     S446.079,318.847,440.004,318.847z"/>
		</g>
		<g>
			<path style="fill:#33CCCC;" d="M358.677,257.851h-73.195c-6.075,0-11-4.925-11-11s4.925-11,11-11h73.195c6.075,0,11,4.925,11,11     S364.752,257.851,358.677,257.851z"/>
		</g>
		<g>
			<path style="fill:#33CCCC;" d="M358.677,196.855h-73.195c-6.075,0-11-4.925-11-11s4.925-11,11-11h73.195c6.075,0,11,4.925,11,11     S364.752,196.855,358.677,196.855z"/>
		</g>
	</g>
	<g>
		<path d="M511.992,195.854c-0.027-2.403-0.875-4.784-2.376-6.661c-1.2-1.549-80.944-80.931-82.166-82.279    c-2.042-2.045-4.889-3.219-7.778-3.221H265.983V41.498C265.983,18.616,247.367,0,224.485,0H41.498C18.616,0,0,18.616,0,41.498    v347.676c0,22.882,18.616,41.498,41.498,41.498h171.987v49.996c0,17.276,14.056,31.332,31.332,31.332h235.851    C497.944,512,512,497.944,512,480.668V196.021C512,195.965,511.993,195.91,511.992,195.854z M430.672,141.249l21.886,21.885    l21.886,21.886h-34.439c-5.146,0-9.332-4.186-9.332-9.332V141.249z M41.498,22h182.987c10.751,0,19.498,8.747,19.498,19.498    v62.216c-16.891,0.445-30.498,14.314-30.498,31.311v212.651H22V41.498C22,30.747,30.747,22,41.498,22z M41.498,408.672    c-10.751,0-19.498-8.747-19.498-19.498v-19.498h191.485v38.996H41.498z M490,480.668c0,5.146-4.187,9.332-9.332,9.332H244.817    c-5.146,0-9.332-4.187-9.332-9.332V135.025c0-5.146,4.187-9.332,9.332-9.332h163.854v49.996c0,17.276,14.056,31.332,31.332,31.332    H490V480.668z"/>
		<path d="M112.66,82.996h40.663c6.075,0,11-4.925,11-11s-4.925-11-11-11H112.66c-6.075,0-11,4.925-11,11    S106.585,82.996,112.66,82.996z"/>
	</g>
</g>















</svg>
