<svg xmlns="http://www.w3.org/2000/svg" width="47.881" height="43.891" viewBox="0 0 47.881 43.891">
  <path id="doctor_1_" data-name="doctor (1)" d="M37.906,8.98H31.921v-2A5.985,5.985,0,0,0,25.935,1h-3.99A5.985,5.985,0,0,0,15.96,6.985v2H9.975A9.987,9.987,0,0,0,0,18.955v15.96a9.987,9.987,0,0,0,9.975,9.975H37.906a9.987,9.987,0,0,0,9.975-9.975V18.955A9.987,9.987,0,0,0,37.906,8.98Zm-17.955-2a2,2,0,0,1,2-2h3.99a2,2,0,0,1,2,2v2H19.95Zm23.94,27.93A5.985,5.985,0,0,1,37.906,40.9H9.975A5.985,5.985,0,0,1,3.99,34.916V18.955A5.985,5.985,0,0,1,9.975,12.97H37.906a5.985,5.985,0,0,1,5.985,5.985Zm-11.97-7.98a2,2,0,0,1-2,2h-3.99v3.99a2,2,0,0,1-3.99,0V28.93h-3.99a2,2,0,1,1,0-3.99h3.99V20.95a2,2,0,1,1,3.99,0v3.99h3.99A2,2,0,0,1,31.921,26.935Z" transform="translate(0 -1)"/>
</svg>
