<svg id="Capa_1" enable-background="new 0 0 509.802 509.802" height="512" viewBox="0 0 509.802 509.802" width="512" xmlns="http://www.w3.org/2000/svg"><path d="m300.294 380.531-18.23-59.93 3.72-.36c8.25-.79 14.29-8.12 13.5-16.36-.8-8.25-8.13-14.29-16.37-13.5l-9.75.94-16.55-54.41-18.82-61.88c-4.36-14.36-24.97-14.07-28.85.51l-33.27 125.18-26.92 2.59c-8.25.8-14.29 8.13-13.49 16.37.75 7.76 7.27 13.57 14.91 13.57.48 0 .97-.03 1.46-.07l15.81-1.53-13.03 49.02c-2.13 8 2.64 16.22 10.64 18.35 8.01 2.13 16.23-2.64 18.35-10.64l15.9-59.8 52.3-5.04 5.01 16.47 14.98 49.25c2.402 7.93 10.789 12.393 18.71 9.99 7.93-2.41 12.4-10.79 9.99-18.72zm-92.77-82.88 16.89-63.52 18.29 60.13z" fill="#ff7c48"/><path d="m333.868 211.131c8.284 0 15-6.716 15-15v-32.22l16.619.962c.295.017.588.025.88.025 7.887 0 14.5-6.159 14.961-14.134.479-8.271-5.838-15.363-14.108-15.842l-18.353-1.062v-18.46c0-8.284-6.716-15-15-15s-15 6.716-15 15v16.724l-16.619-.962c-8.268-.48-15.363 5.838-15.842 14.108s5.838 15.363 14.108 15.842l18.353 1.062v33.957c.001 8.284 6.717 15 15.001 15z" fill="#ff415b"/><path d="m256.614 509.771c-183.402-2.517-252.445-147.915-231.36-277.46 17.88-109.79 97.97-199.44 231.36-224.98 38.87-7.45 82.26-9.46 129.95-4.93 8.25.79 14.3 8.11 13.52 16.35-.78 8.25-8.1 14.29-16.35 13.52-48.17-4.57-90.39-2.19-127.12 5.48-127.03 26.51-188.21 116.18-201.75 199.38-16.684 102.52 29.874 239.811 201.75 242.72 217.434 3.694 250.762-271.156 140.23-388.65-5.67-6.03-5.39-15.52.65-21.2 6.03-5.68 15.53-5.39 21.2.65 126.803 134.796 84.329 442.696-162.08 439.12z" fill="#ff7c48"/><g fill="#ff415b"><path d="m271.594 389.261-14.98-49.25v-103.1l16.55 54.41 9.75-.94c8.24-.79 15.57 5.25 16.37 13.5.79 8.24-5.25 15.57-13.5 16.36l-3.72.36 18.23 59.93c2.41 7.93-2.06 16.31-9.99 18.72-7.933 2.407-16.311-2.07-18.71-9.99z"/><path d="m256.614 37.751v-30.42c38.87-7.45 82.26-9.46 129.95-4.93 8.25.79 14.3 8.11 13.52 16.35-.78 8.25-8.1 14.29-16.35 13.52-48.17-4.57-90.39-2.19-127.12 5.48z"/><path d="m256.614 509.771v-29.92c217.434 3.694 250.762-271.156 140.23-388.65-5.67-6.03-5.39-15.52.65-21.2 6.03-5.68 15.53-5.39 21.2.65 126.803 134.796 84.329 442.696-162.08 439.12z"/></g></svg>