<svg xmlns="http://www.w3.org/2000/svg" width="48.193" height="44.222" viewBox="0 0 48.193 44.222">
  <path id="graduation-cap" d="M44.279,29.393,29.473,22.339a10.494,10.494,0,0,0-10.608-.09L3.891,29.393c-.056.028-.114.058-.169.09a7.411,7.411,0,0,0,.169,12.961l4.13,1.968v9.839a10.054,10.054,0,0,0,7.066,9.594,31.238,31.238,0,0,0,9,1.229,31.239,31.239,0,0,0,9-1.219,10.054,10.054,0,0,0,7.066-9.594V44.409l4.016-1.92V59.051a2.008,2.008,0,1,0,4.016,0v-24.1C48.194,32.6,46.333,30.419,44.279,29.393ZM36.133,54.262a6.024,6.024,0,0,1-4.217,5.749,27.292,27.292,0,0,1-7.831,1.048,27.292,27.292,0,0,1-7.831-1.048,6.024,6.024,0,0,1-4.217-5.749V46.326L18.7,49.5a10.586,10.586,0,0,0,5.432,1.484A10.04,10.04,0,0,0,29.3,49.589l6.829-3.263Zm6.426-15.441L27.415,46.049a6.614,6.614,0,0,1-6.807-.09L5.791,38.911a3.4,3.4,0,0,1-.074-5.94l15.05-7.189a6.626,6.626,0,0,1,6.807.09L42.38,32.927a3.47,3.47,0,0,1,1.785,2.992,3.413,3.413,0,0,1-1.606,2.9Z" transform="translate(0.011 -20.854)"/>
</svg>
