<svg xmlns="http://www.w3.org/2000/svg" width="35.692" height="35.692" viewBox="0 0 35.692 35.692">
  <path id="music-alt" d="M33.542,1.373A5.916,5.916,0,0,0,28.648.1L14.989,2.665A7.436,7.436,0,0,0,8.923,9.973V24.622a5.888,5.888,0,0,0-2.974-.827A5.949,5.949,0,1,0,11.9,29.744V16.175a2.974,2.974,0,0,1,2.427-2.924l16.631-3.123A1.487,1.487,0,0,1,32.718,11.6v8.566a5.888,5.888,0,0,0-2.974-.833,5.949,5.949,0,1,0,5.949,5.949V5.949a5.929,5.929,0,0,0-2.15-4.576ZM5.949,32.718a2.974,2.974,0,1,1,2.974-2.974A2.974,2.974,0,0,1,5.949,32.718ZM30.408,7.21,13.776,10.327a5.949,5.949,0,0,0-1.878.7V9.973a4.462,4.462,0,0,1,3.64-4.386L29.2,3.026a2.974,2.974,0,0,1,3.522,2.922V7.412a4.395,4.395,0,0,0-2.31-.2Zm-.665,21.047a2.974,2.974,0,1,1,2.974-2.974A2.974,2.974,0,0,1,29.744,28.256Z"/>
</svg>
