<svg xmlns="http://www.w3.org/2000/svg" width="731.441" height="613.113" viewBox="0 0 731.441 613.113">
  <path id="Path_1" data-name="Path 1" d="M-286.586-48.891l55.208,5.393,29.657-46.874,55.205,5.395,29.66-46.875,55.209,5.393,29.66-46.875,55.209,5.393,29.661-46.875,55.209,5.393L137.753-256.3l55.21,5.393,29.664-46.877,55.212,5.392M-268.244-11.366l55.208,5.393,29.657-46.874,55.205,5.4,29.66-46.875L-43.3-88.933l29.66-46.875,55.209,5.393L71.225-177.29l55.209,5.393,29.661-46.876,55.21,5.393,29.664-46.877,55.212,5.392m18.341,37.525-55.211-5.392-29.664,46.877-55.21-5.392-29.66,46.875-55.209-5.393L59.905-92.89,4.7-98.283l-29.66,46.874L-80.172-56.8l-29.66,46.875-55.206-5.395-29.657,46.873L-249.9,26.159m18.341,37.525,55.208,5.393L-146.7,22.2-91.491,27.6l29.66-46.875,55.209,5.393L23.038-60.758l55.209,5.393,29.661-46.875,55.209,5.393,29.66-46.876,55.21,5.393,29.664-46.877,55.211,5.392M351.2-142.29l-55.212-5.392L266.328-100.8,211.119-106.2,181.458-59.322l-55.209-5.393L96.588-17.84,41.379-23.233,11.719,23.642l-55.209-5.393-29.66,46.875-55.206-5.395L-158.012,106.6l-55.208-5.393M369.545-104.764l-55.212-5.392L284.67-63.28l-55.21-5.393L199.8-21.8,144.59-27.19,114.929,19.686,59.721,14.292,30.061,61.167l-55.209-5.393-29.66,46.876-55.205-5.4-29.657,46.874-55.209-5.393m18.342,37.525,55.208,5.393,29.657-46.873,55.205,5.395L-6.807,93.3,48.4,98.692l29.66-46.874,55.209,5.393,29.66-46.876,55.209,5.393L247.8-31.147l55.21,5.392,29.664-46.877,55.212,5.392M-158.2,213.784l55.208,5.393L-73.331,172.3l55.206,5.395,29.66-46.875,55.209,5.393L96.4,89.342l55.209,5.393L181.273,47.86l55.209,5.393L266.143,6.378l55.21,5.393,29.664-46.877,55.211,5.392M424.569,7.81,369.358,2.419,339.694,49.3,284.484,43.9l-29.66,46.876-55.209-5.393L169.953,132.26l-55.209-5.393L85.085,173.742l-55.209-5.393L.216,215.224l-55.206-5.395L-84.647,256.7l-55.208-5.393M442.911,45.335,387.7,39.944,358.035,86.821l-55.21-5.393L273.165,128.3l-55.209-5.393-29.661,46.875-55.209-5.393-29.659,46.875-55.209-5.393-29.66,46.876-55.206-5.4-29.657,46.874-55.208-5.393" transform="translate(287.558 308.333)" fill="none" stroke="#707070" stroke-miterlimit="10" stroke-width="20" opacity="0.1" style="mix-blend-mode: screen;isolation: isolate"/>
</svg>
