<svg enable-background="new 0 0 32 32" height="512" viewBox="0 0 32 32" width="512" xmlns="http://www.w3.org/2000/svg"><path d="m26 32h-20c-3.314 0-6-2.686-6-6v-20c0-3.314 2.686-6 6-6h20c3.314 0 6 2.686 6 6v20c0 3.314-2.686 6-6 6z" fill="#f5e6fe"/><g fill="#d9a4fc"><path d="m22.833 8h-5c-.643 0-1.167.523-1.167 1.167v1.667c0 .643.523 1.167 1.167 1.167h5c.644-.001 1.167-.524 1.167-1.168v-1.666c0-.644-.523-1.167-1.167-1.167z"/><path d="m22.833 14h-5c-.643 0-1.167.523-1.167 1.167v1.667c0 .643.523 1.167 1.167 1.167h5c.644-.001 1.167-.524 1.167-1.168v-1.667c0-.643-.523-1.166-1.167-1.166z"/><path d="m22.833 20h-5c-.643 0-1.167.523-1.167 1.167v1.667c0 .643.523 1.167 1.167 1.167h5c.644-.001 1.167-.524 1.167-1.168v-1.667c0-.643-.523-1.166-1.167-1.166z"/></g><path d="m9.167 24h5c.643 0 1.167-.523 1.167-1.167v-13.666c-.001-.644-.524-1.167-1.167-1.167h-5c-.644 0-1.167.523-1.167 1.167v13.667c0 .643.523 1.166 1.167 1.166z" fill="#be63f9"/></svg>