<svg xmlns="http://www.w3.org/2000/svg" width="35.774" height="42.93" viewBox="0 0 35.774 42.93">
  <g id="shield-check_1_" data-name="shield-check (1)" transform="translate(-2)">
    <path id="Path_11153" data-name="Path 11153" d="M31.659,3.828,20.452.091a1.789,1.789,0,0,0-1.13,0L8.116,3.828A8.931,8.931,0,0,0,2,12.312v9.153c0,13.528,16.456,21,17.161,21.311a1.789,1.789,0,0,0,1.452,0c.7-.311,17.161-7.783,17.161-21.311V12.312a8.931,8.931,0,0,0-6.116-8.484ZM34.2,21.465c0,9.757-11.3,16.158-14.31,17.689-3.01-1.526-14.31-7.906-14.31-17.689V12.312a5.366,5.366,0,0,1,3.67-5.091l10.64-3.547L30.527,7.221a5.366,5.366,0,0,1,3.67,5.091Z" transform="translate(0)"/>
    <path id="Path_11154" data-name="Path 11154" d="M21.744,8.531l-7.491,7.513-4.014-4.186a1.789,1.789,0,1,0-2.578,2.479l4.125,4.293A3.348,3.348,0,0,0,14.192,19.7h.059a3.35,3.35,0,0,0,2.388-.989l7.641-7.641a1.8,1.8,0,1,0-2.536-2.542Z" transform="translate(4.046 6.315)"/>
  </g>
</svg>
