<svg xmlns="http://www.w3.org/2000/svg" width="47.865" height="47.862" viewBox="0 0 47.865 47.862">
  <path id="taxi" d="M45.869,21.937a1.994,1.994,0,1,0,0-3.989H43.077L41.542,13a9.9,9.9,0,0,0-8.236-6.914A9.935,9.935,0,0,0,24.166,0H23.7a9.935,9.935,0,0,0-9.14,6.086A9.9,9.9,0,0,0,6.327,13l-1.54,4.95H2a1.994,1.994,0,0,0,0,3.989H3.553L2.127,26.524A7.893,7.893,0,0,0,3.99,38.776v3.1a5.983,5.983,0,0,0,11.966,0V39.885H31.909V41.88a5.983,5.983,0,0,0,11.966,0v-3.1a7.893,7.893,0,0,0,1.863-12.249l-1.426-4.591ZM23.7,3.989h.467A5.965,5.965,0,0,1,28.6,5.983H19.26A5.959,5.959,0,0,1,23.7,3.989ZM10.138,14.179A5.955,5.955,0,0,1,15.85,9.971H32.015a5.955,5.955,0,0,1,5.714,4.21l3.055,9.84a7.86,7.86,0,0,0-.9-.09H7.978a7.86,7.86,0,0,0-.9.09Zm1.829,27.7a1.994,1.994,0,0,1-3.989,0V39.885h3.989Zm27.92,0a1.994,1.994,0,1,1-3.989,0V39.885h3.989Zm0-5.983H7.978a3.989,3.989,0,0,1,0-7.977v1.994a1.994,1.994,0,0,0,3.989,0V27.92H35.9v1.994a1.994,1.994,0,1,0,3.989,0V27.92a3.989,3.989,0,1,1,0,7.977Z" transform="translate(0.001)"/>
</svg>
