<?xml version="1.0" encoding="UTF-8"?>
<!-- Generator: Adobe Illustrator 24.2.3, SVG Export Plug-In . SVG Version: 6.00 Build 0)  -->
<svg xmlns="http://www.w3.org/2000/svg" xmlns:xlink="http://www.w3.org/1999/xlink" version="1.1" id="Capa_1" x="0px" y="0px" viewBox="0 0 512 512" style="enable-background:new 0 0 512 512;" xml:space="preserve" width="512" height="512">
<g>
	<g>
		<path style="fill:#33CCCC;" d="M505.468,287.629c-63.676-28.301-128.247-28.301-191.923,0c-3.972,1.765-6.532,5.705-6.532,10.052    v62.532c0,65.165,38.478,124.373,98.025,150.839c1.422,0.632,2.945,0.948,4.468,0.948s3.045-0.316,4.468-0.948    C473.522,484.585,512,425.378,512,360.213v-62.532C512,293.333,509.44,289.394,505.468,287.629z M490,360.213    c0,54.832-31.435,104.799-80.494,128.657c-49.059-23.858-80.493-73.825-80.493-128.657V304.94    c53.451-21.944,107.536-21.944,160.987,0V360.213z"/>
		<path style="fill:#33CCCC;" d="M384.937,381.396c-4.297-4.296-11.26-4.296-15.557,0c-4.296,4.296-4.296,11.261,0,15.557    l21.565,21.565c2.148,2.148,4.963,3.222,7.778,3.222s5.63-1.074,7.778-3.222l43.131-43.131c4.296-4.296,4.296-11.261,0-15.557    c-4.297-4.296-11.26-4.296-15.557,0l-35.353,35.353L384.937,381.396z"/>
	</g>
	<g>
		<path d="M265.983,275.315v-11.328c0-32.349-19.069-60.318-46.55-73.288c9.878-9.416,16.052-22.684,16.052-37.375    c0-28.488-23.176-51.664-51.664-51.664c-28.488,0-51.664,23.176-51.664,51.664c0,14.691,6.174,27.96,16.052,37.375    c-27.481,12.97-46.55,40.939-46.55,73.288v11.328c0,6.075,4.925,11,11,11h142.324    C261.059,286.315,265.983,281.391,265.983,275.315z M183.822,123.66c16.356,0,29.664,13.307,29.664,29.664    c0,16.356-13.307,29.664-29.664,29.664c-16.357,0-29.664-13.307-29.664-29.664C154.158,136.967,167.465,123.66,183.822,123.66z     M243.983,264.315H123.66v-0.328c0-32.533,26.467-59,59-59h2.324c32.533,0,59,26.467,59,59V264.315z"/>
		<path d="M122.826,408.307h121.992c6.075,0,11-4.925,11-11s-4.925-11-11-11H122.826c-6.075,0-11,4.925-11,11    S116.75,408.307,122.826,408.307z"/>
		<path d="M367.644,270.43V112.66c-0.001-2.889-1.176-5.735-3.222-7.778L262.762,3.222c-2.043-2.047-4.89-3.218-7.778-3.222H41.498    C18.616,0,0,18.616,0,41.498v386.307c0,22.882,18.616,41.498,41.498,41.498H348.24c-6.049-6.874-11.498-14.24-16.32-22H41.498    c-10.751,0-19.498-8.747-19.498-19.498V41.498C22,30.747,30.747,22,41.498,22h202.485v60.162    c0,22.882,18.616,41.498,41.498,41.498h60.162v152.139C352.97,273.643,360.304,271.842,367.644,270.43z M285.481,101.66    c-10.751,0-19.498-8.747-19.498-19.498V37.556l64.104,64.104H285.481z"/>
	</g>
	<circle cx="122.83" cy="336.311" r="11"/>
	<circle cx="183.82" cy="336.311" r="11"/>
	<circle cx="244.82" cy="336.311" r="10.999"/>
</g>















</svg>
