<svg height="512pt" viewBox="0 0 512 512" width="512pt" xmlns="http://www.w3.org/2000/svg"><path d="m365.199219 261.398438 8.699219 52.199218-29.699219 4.800782h-176.398438l-29.699219-4.800782 8.699219-52.199218-107.398437-105.898438 149.097656-22.199219 67.5-133.300781 67.5 133.300781 149.097656 22.199219zm0 0" fill="#ffda2d"/><path d="m365.199219 261.398438 8.699219 52.199218-29.699219 4.800782h-88.199219v-318.398438l67.5 133.300781 149.097656 22.199219zm0 0" fill="#fdbf00"/><path d="m345.097656 197.199219-61.5-9.300781-27.597656-55.5-27.597656 55.5-61.5 9.300781 44.398437 43.5-10.203125 60.898437 54.902344-28.496094 54.902344 28.496094-10.203125-60.898437zm0 0" fill="#fdbf00"/><path d="m300.699219 240.699219 10.203125 60.898437-54.902344-28.496094v-140.703124l27.597656 55.5 61.5 9.300781zm0 0" fill="#ff9100"/><path d="m512 361h-181v151h181l-37.5-76zm0 0" fill="#f03800"/><path d="m0 361 37.5 75-37.5 76h181v-151zm0 0" fill="#ff641a"/><path d="m91 301v150h330v-150zm0 0" fill="#ff9100"/><path d="m256 301h165v150h-165zm0 0" fill="#ff641a"/><path d="m181 361h30v30h-30zm0 0" fill="#ffda2d"/><path d="m241 361h30v30h-30zm0 0" fill="#ffda2d"/><g fill="#fdbf00"><path d="m301 361h30v30h-30zm0 0"/><path d="m256 361h15v30h-15zm0 0"/></g></svg>